<mxfile host="app.diagrams.net" modified="2020-07-10T14:41:53.499Z" agent="5.0 (Windows NT 10.0; WOW64) AppleWebKit/537.36 (KHTML, like Gecko) Chrome/75.0.3759.4 Safari/537.36" etag="OFuJ8U8gB4yv9Fhxy-DO" version="13.4.1" type="github">
  <diagram id="yzTa_YN6seDBMn_71TWN" name="第 1 页">
    <mxGraphModel dx="1038" dy="531" grid="1" gridSize="10" guides="1" tooltips="1" connect="1" arrows="1" fold="1" page="1" pageScale="1" pageWidth="827" pageHeight="1169" math="0" shadow="0">
      <root>
        <mxCell id="0" />
        <mxCell id="1" parent="0" />
      </root>
    </mxGraphModel>
  </diagram>
</mxfile>
